<svg xmlns="http://www.w3.org/2000/svg" width="32" height="32" viewBox="0 0 32 32">
  <path d="M16 28C8.2 28 2 21.8 2 14c0-4.4 2.4-8.2 6-10.1V2h6v4.9c1.6 0.6 3.1 1.7 4.3 3.1C23.6 5.8 26 9.6 26 14c0 7.8-6.2 14-14 14z" fill="#ff6b8b"/>
  <path d="M16 26C9.4 26 4 20.6 4 14c0-3.9 2-7.4 5.2-9.5V4h5.8v2.5c1.3 0.5 2.5 1.4 3.5 2.6C22 6.6 24 10.1 24 14c0 6.6-5.4 12-12 12z" fill="#ff9a9e"/>
  <path d="M16 24C10.5 24 6 19.5 6 14c0-3.3 1.8-6.3 4.5-7.8V6h5v0.2c1.1 0.4 2.1 1.1 2.9 1.9C21.2 7.7 22 10.7 22 14c0 5.5-4.5 10-10 10z" fill="#ffb6c1"/>
</svg>